<svg id="visual" viewBox="0 0 1920 1080" width="1920" height="1080" xmlns="http://www.w3.org/2000/svg" xmlns:xlink="http://www.w3.org/1999/xlink" version="1.1"><rect x="0" y="0" width="1920" height="1080" fill="#307ECC"></rect><path d="M1273 1080L1188 1080L1188 997L1197 997L1197 914L1216 914L1216 831L1176 831L1176 748L1274 748L1274 665L1249 665L1249 582L1206 582L1206 498L1334 498L1334 415L1218 415L1218 332L1365 332L1365 249L1221 249L1221 166L1324 166L1324 83L1335 83L1335 0L1920 0L1920 83L1920 83L1920 166L1920 166L1920 249L1920 249L1920 332L1920 332L1920 415L1920 415L1920 498L1920 498L1920 582L1920 582L1920 665L1920 665L1920 748L1920 748L1920 831L1920 831L1920 914L1920 914L1920 997L1920 997L1920 1080L1920 1080Z" fill="#14c3e5"></path><path d="M1432 1080L1365 1080L1365 997L1368 997L1368 914L1325 914L1325 831L1359 831L1359 748L1418 748L1418 665L1407 665L1407 582L1229 582L1229 498L1366 498L1366 415L1309 415L1309 332L1305 332L1305 249L1308 249L1308 166L1403 166L1403 83L1291 83L1291 0L1920 0L1920 83L1920 83L1920 166L1920 166L1920 249L1920 249L1920 332L1920 332L1920 415L1920 415L1920 498L1920 498L1920 582L1920 582L1920 665L1920 665L1920 748L1920 748L1920 831L1920 831L1920 914L1920 914L1920 997L1920 997L1920 1080L1920 1080Z" fill="#00b8df"></path><path d="M1325 1080L1492 1080L1492 997L1459 997L1459 914L1386 914L1386 831L1429 831L1429 748L1425 748L1425 665L1311 665L1311 582L1441 582L1441 498L1454 498L1454 415L1357 415L1357 332L1276 332L1276 249L1345 249L1345 166L1361 166L1361 83L1434 83L1434 0L1920 0L1920 83L1920 83L1920 166L1920 166L1920 249L1920 249L1920 332L1920 332L1920 415L1920 415L1920 498L1920 498L1920 582L1920 582L1920 665L1920 665L1920 748L1920 748L1920 831L1920 831L1920 914L1920 914L1920 997L1920 997L1920 1080L1920 1080Z" fill="#00add8"></path><path d="M1343 1080L1381 1080L1381 997L1481 997L1481 914L1472 914L1472 831L1493 831L1493 748L1434 748L1434 665L1509 665L1509 582L1539 582L1539 498L1481 498L1481 415L1366 415L1366 332L1340 332L1340 249L1380 249L1380 166L1417 166L1417 83L1513 83L1513 0L1920 0L1920 83L1920 83L1920 166L1920 166L1920 249L1920 249L1920 332L1920 332L1920 415L1920 415L1920 498L1920 498L1920 582L1920 582L1920 665L1920 665L1920 748L1920 748L1920 831L1920 831L1920 914L1920 914L1920 997L1920 997L1920 1080L1920 1080Z" fill="#00a3d1"></path><path d="M1586 1080L1560 1080L1560 997L1432 997L1432 914L1467 914L1467 831L1422 831L1422 748L1583 748L1583 665L1447 665L1447 582L1463 582L1463 498L1531 498L1531 415L1496 415L1496 332L1482 332L1482 249L1400 249L1400 166L1422 166L1422 83L1587 83L1587 0L1920 0L1920 83L1920 83L1920 166L1920 166L1920 249L1920 249L1920 332L1920 332L1920 415L1920 415L1920 498L1920 498L1920 582L1920 582L1920 665L1920 665L1920 748L1920 748L1920 831L1920 831L1920 914L1920 914L1920 997L1920 997L1920 1080L1920 1080Z" fill="#0098c9"></path><path d="M1458 1080L1602 1080L1602 997L1548 997L1548 914L1601 914L1601 831L1489 831L1489 748L1598 748L1598 665L1466 665L1466 582L1480 582L1480 498L1586 498L1586 415L1496 415L1496 332L1493 332L1493 249L1510 249L1510 166L1585 166L1585 83L1517 83L1517 0L1920 0L1920 83L1920 83L1920 166L1920 166L1920 249L1920 249L1920 332L1920 332L1920 415L1920 415L1920 498L1920 498L1920 582L1920 582L1920 665L1920 665L1920 748L1920 748L1920 831L1920 831L1920 914L1920 914L1920 997L1920 997L1920 1080L1920 1080Z" fill="#008dc1"></path><path d="M1563 1080L1565 1080L1565 997L1625 997L1625 914L1590 914L1590 831L1658 831L1658 748L1558 748L1558 665L1561 665L1561 582L1683 582L1683 498L1683 498L1683 415L1632 415L1632 332L1640 332L1640 249L1517 249L1517 166L1542 166L1542 83L1614 83L1614 0L1920 0L1920 83L1920 83L1920 166L1920 166L1920 249L1920 249L1920 332L1920 332L1920 415L1920 415L1920 498L1920 498L1920 582L1920 582L1920 665L1920 665L1920 748L1920 748L1920 831L1920 831L1920 914L1920 914L1920 997L1920 997L1920 1080L1920 1080Z" fill="#0083b9"></path><path d="M1618 1080L1730 1080L1730 997L1640 997L1640 914L1674 914L1674 831L1656 831L1656 748L1701 748L1701 665L1700 665L1700 582L1658 582L1658 498L1570 498L1570 415L1680 415L1680 332L1643 332L1643 249L1641 249L1641 166L1614 166L1614 83L1716 83L1716 0L1920 0L1920 83L1920 83L1920 166L1920 166L1920 249L1920 249L1920 332L1920 332L1920 415L1920 415L1920 498L1920 498L1920 582L1920 582L1920 665L1920 665L1920 748L1920 748L1920 831L1920 831L1920 914L1920 914L1920 997L1920 997L1920 1080L1920 1080Z" fill="#0078b0"></path><path d="M1737 1080L1710 1080L1710 997L1691 997L1691 914L1640 914L1640 831L1708 831L1708 748L1766 748L1766 665L1697 665L1697 582L1756 582L1756 498L1692 498L1692 415L1693 415L1693 332L1631 332L1631 249L1643 249L1643 166L1723 166L1723 83L1638 83L1638 0L1920 0L1920 83L1920 83L1920 166L1920 166L1920 249L1920 249L1920 332L1920 332L1920 415L1920 415L1920 498L1920 498L1920 582L1920 582L1920 665L1920 665L1920 748L1920 748L1920 831L1920 831L1920 914L1920 914L1920 997L1920 997L1920 1080L1920 1080Z" fill="#006ea7"></path><path d="M1786 1080L1769 1080L1769 997L1737 997L1737 914L1790 914L1790 831L1749 831L1749 748L1740 748L1740 665L1795 665L1795 582L1739 582L1739 498L1823 498L1823 415L1758 415L1758 332L1689 332L1689 249L1713 249L1713 166L1772 166L1772 83L1705 83L1705 0L1920 0L1920 83L1920 83L1920 166L1920 166L1920 249L1920 249L1920 332L1920 332L1920 415L1920 415L1920 498L1920 498L1920 582L1920 582L1920 665L1920 665L1920 748L1920 748L1920 831L1920 831L1920 914L1920 914L1920 997L1920 997L1920 1080L1920 1080Z" fill="#00639d"></path><path d="M1784 1080L1744 1080L1744 997L1834 997L1834 914L1815 914L1815 831L1849 831L1849 748L1746 748L1746 665L1792 665L1792 582L1819 582L1819 498L1838 498L1838 415L1771 415L1771 332L1854 332L1854 249L1864 249L1864 166L1835 166L1835 83L1798 83L1798 0L1920 0L1920 83L1920 83L1920 166L1920 166L1920 249L1920 249L1920 332L1920 332L1920 415L1920 415L1920 498L1920 498L1920 582L1920 582L1920 665L1920 665L1920 748L1920 748L1920 831L1920 831L1920 914L1920 914L1920 997L1920 997L1920 1080L1920 1080Z" fill="#025994"></path><path d="M1889 1080L1873 1080L1873 997L1824 997L1824 914L1887 914L1887 831L1844 831L1844 748L1900 748L1900 665L1869 665L1869 582L1890 582L1890 498L1806 498L1806 415L1879 415L1879 332L1904 332L1904 249L1830 249L1830 166L1915 166L1915 83L1878 83L1878 0L1920 0L1920 83L1920 83L1920 166L1920 166L1920 249L1920 249L1920 332L1920 332L1920 415L1920 415L1920 498L1920 498L1920 582L1920 582L1920 665L1920 665L1920 748L1920 748L1920 831L1920 831L1920 914L1920 914L1920 997L1920 997L1920 1080L1920 1080Z" fill="#074f8a"></path></svg>